<svg width="18" height="24" viewBox="0 0 18 24" fill="none" xmlns="http://www.w3.org/2000/svg">
<path d="M7.54167 8V9.33333H4.20833V16.6667H11.5417V13.3333H12.875V17.3333C12.875 17.52 12.8106 17.6778 12.6817 17.8067C12.5528 17.9356 12.395 18 12.2083 18H3.54167C3.355 18 3.19722 17.9356 3.06833 17.8067C2.93944 17.6778 2.875 17.52 2.875 17.3333V8.66667C2.875 8.48 2.93944 8.32222 3.06833 8.19333C3.19722 8.06444 3.355 8 3.54167 8H7.54167ZM14.875 6V11.3333H13.5417V8.28L8.34167 13.4667L7.40833 12.5333L12.595 7.33333H9.54167V6H14.875Z" fill="#2563EB"/>
</svg>
