<svg width="26" height="24" viewBox="0 0 26 24" fill="none" xmlns="http://www.w3.org/2000/svg">
<path d="M7.24 6.46C6.53333 7.19333 5.98667 8.02667 5.6 8.96C5.2 9.93333 5 10.9467 5 12C5 13.4533 5.36667 14.8 6.1 16.04C6.80667 17.24 7.76 18.1933 8.96 18.9C10.2 19.6333 11.5467 20 13 20C14.0667 20 15.0867 19.8 16.06 19.4C16.1 19.0667 16.0867 18.7133 16.02 18.34C15.9667 18.1133 15.9 17.8933 15.82 17.68C15.58 17.12 14.8267 16.1733 13.56 14.84C13.4 14.6667 13.3067 14.48 13.28 14.28C13.2667 14.1333 13.2933 13.84 13.36 13.4L13.38 13.3C13.4067 13.0867 13.46 12.9267 13.54 12.82C13.6467 12.6733 13.84 12.5467 14.12 12.44C14.4133 12.32 14.86 12.2133 15.46 12.12C15.7667 12.08 16.01 12.0833 16.19 12.13C16.37 12.1767 16.5267 12.2733 16.66 12.42C16.74 12.5 16.8533 12.6533 17 12.88L17.12 13.04C17.2667 13.2667 17.42 13.4333 17.58 13.54C17.6733 13.62 17.8333 13.7067 18.06 13.8C18.3 13.92 18.52 14.0367 18.72 14.15C18.92 14.2633 19.0667 14.39 19.16 14.53C19.2533 14.67 19.3133 14.8533 19.34 15.08C19.3533 15.2133 19.36 15.4667 19.36 15.84V15.96C19.36 16.32 19.3267 16.66 19.26 16.98C19.82 16.2867 20.2467 15.52 20.54 14.68C20.8467 13.8267 21 12.9333 21 12C21 10.92 20.7933 9.88667 20.38 8.9C19.98 7.94 19.4133 7.09333 18.68 6.36C17.9467 5.62667 17.1067 5.05333 16.16 4.64C15.2933 5.22667 14.7667 5.64667 14.58 5.9C14.5533 5.94 14.5133 6.02667 14.46 6.16C14.3533 6.42667 14.2533 6.62 14.16 6.74C14.0133 6.96667 13.8333 7.09333 13.62 7.12C13.5133 7.13333 13.3133 7.13333 13.02 7.12C12.5667 7.08 12.2267 7.08667 12 7.14C11.6267 7.22 11.38 7.42667 11.26 7.76C11.2067 7.93333 11.1733 8.16 11.16 8.44C11.1467 8.76 11.1733 9.06 11.24 9.34C11.32 9.67333 11.4467 9.94667 11.62 10.16C11.7133 10.2667 11.7267 10.44 11.66 10.68C11.6333 10.8 11.5867 10.9133 11.52 11.02C11.4667 11.0867 11.42 11.14 11.38 11.18C11.3133 11.14 11.17 10.9933 10.95 10.74C10.73 10.4867 10.5533 10.3 10.42 10.18C10.1933 9.98 9.96667 9.84667 9.74 9.78C9.63333 9.75333 9.44667 9.71333 9.18 9.66L9.16 9.64C8.78667 9.56 8.52 9.49333 8.36 9.44C8.08 9.34667 7.90667 9.23333 7.84 9.1C7.8 8.99333 7.77333 8.86 7.76 8.7C7.74667 8.60667 7.74 8.44667 7.74 8.22C7.74 7.94 7.73333 7.72667 7.72 7.58C7.69333 7.31333 7.63333 7.08 7.54 6.88C7.46 6.72 7.36 6.58 7.24 6.46ZM13 22C11.64 22 10.34 21.74 9.1 21.22C7.91333 20.7133 6.85667 19.9967 5.93 19.07C5.00333 18.1433 4.28667 17.0867 3.78 15.9C3.26 14.66 3 13.36 3 12C3 10.64 3.26 9.34 3.78 8.1C4.28667 6.91333 5.00333 5.85667 5.93 4.93C6.85667 4.00333 7.91333 3.28667 9.1 2.78C10.34 2.26 11.64 2 13 2C14.36 2 15.66 2.26 16.9 2.78C18.0867 3.28667 19.1433 4.00333 20.07 4.93C20.9967 5.85667 21.7133 6.91333 22.22 8.1C22.74 9.34 23 10.64 23 12C23 13.36 22.74 14.66 22.22 15.9C21.7133 17.0867 20.9967 18.1433 20.07 19.07C19.1433 19.9967 18.0867 20.7133 16.9 21.22C15.66 21.74 14.36 22 13 22Z" fill="#9333EA"/>
</svg>
