<svg width="25" height="25" viewBox="0 0 25 25" fill="none" xmlns="http://www.w3.org/2000/svg">
<g clip-path="url(#clip0_982_1267)">
<path d="M2.34375 27.3438V24.7122H11.1328V10.0082C10.7096 9.81086 10.3434 9.50384 10.0342 9.08717C9.72494 8.67051 9.49707 8.17709 9.35059 7.60691H6.25L9.17969 16.8174C9.17969 17.9139 8.84603 18.8459 8.17871 19.6135C7.51139 20.381 6.70573 20.7648 5.76172 20.7648C4.81771 20.7648 4.01204 20.381 3.34473 19.6135C2.67741 18.8459 2.34375 17.9139 2.34375 16.8174L5.27344 7.60691H3.32031V4.97533H9.35059C9.5459 4.20779 9.89583 3.57752 10.4004 3.08454C10.9049 2.59156 11.4746 2.34463 12.1094 2.34375C12.7441 2.34288 13.3138 2.5898 13.8184 3.08454C14.3229 3.57928 14.6729 4.20954 14.8682 4.97533H20.8984V7.60691H18.9453L21.875 16.8174C21.875 17.9139 21.5413 18.8459 20.874 19.6135C20.2067 20.381 19.401 20.7648 18.457 20.7648C17.513 20.7648 16.7074 20.381 16.04 19.6135C15.3727 18.8459 15.0391 17.9139 15.0391 16.8174L17.9688 7.60691H14.8682C14.7217 8.17709 14.4938 8.67051 14.1846 9.08717C13.8753 9.50384 13.5091 9.81086 13.0859 10.0082V24.7122H21.875V27.3438H2.34375ZM16.626 16.8174H20.2881L18.457 11.0938L16.626 16.8174ZM3.93066 16.8174H7.59277L5.76172 11.0938L3.93066 16.8174ZM12.1094 7.60691C12.3861 7.60691 12.6182 7.48059 12.8057 7.22796C12.9932 6.97533 13.0866 6.66305 13.0859 6.29112C13.0853 5.91919 12.9915 5.60691 12.8047 5.35428C12.6178 5.10165 12.3861 4.97533 12.1094 4.97533C11.8327 4.97533 11.6009 5.10165 11.4141 5.35428C11.2272 5.60691 11.1335 5.91919 11.1328 6.29112C11.1322 6.66305 11.2259 6.97577 11.4141 7.22928C11.6022 7.48279 11.834 7.60866 12.1094 7.60691Z" fill="#2563EB"/>
</g>
<defs>
<clipPath id="clip0_982_1267">
<rect width="25" height="25" fill="white"/>
</clipPath>
</defs>
</svg>
