<svg width="26" height="24" viewBox="0 0 26 24" fill="none" xmlns="http://www.w3.org/2000/svg">
<path d="M18.8798 16.46L23.1598 20.74L21.7398 22.16L17.4598 17.88C16.6732 18.5067 15.8132 18.9867 14.8798 19.32C13.8932 19.6667 12.8798 19.84 11.8398 19.84C10.2132 19.84 8.69984 19.4334 7.29984 18.62C5.93984 17.82 4.86651 16.74 4.07984 15.38C3.25318 13.98 2.83984 12.4667 2.83984 10.84C2.83984 9.21337 3.25318 7.70003 4.07984 6.30003C4.86651 4.94003 5.93984 3.8667 7.29984 3.08003C8.69984 2.25337 10.2132 1.84003 11.8398 1.84003C13.4665 1.84003 14.9798 2.25337 16.3798 3.08003C17.7398 3.8667 18.8198 4.94003 19.6198 6.30003C20.4332 7.70003 20.8398 9.21337 20.8398 10.84C20.8398 11.88 20.6665 12.8934 20.3198 13.88C19.9865 14.8134 19.5065 15.6734 18.8798 16.46ZM16.8598 15.72C17.4865 15.08 17.9732 14.3467 18.3198 13.52C18.6665 12.6667 18.8398 11.7734 18.8398 10.84C18.8398 9.57337 18.5198 8.39337 17.8798 7.30003C17.2665 6.2467 16.4332 5.41337 15.3798 4.80004C14.2865 4.16003 13.1065 3.84003 11.8398 3.84003C10.5732 3.84003 9.39318 4.16003 8.29984 4.80004C7.24651 5.41337 6.41318 6.2467 5.79984 7.30003C5.15984 8.39337 4.83984 9.57337 4.83984 10.84C4.83984 12.1067 5.15984 13.2867 5.79984 14.38C6.41318 15.4334 7.24651 16.2667 8.29984 16.88C9.39318 17.52 10.5732 17.84 11.8398 17.84C12.7732 17.84 13.6665 17.6667 14.5198 17.32C15.3465 16.9734 16.0798 16.4867 16.7198 15.86L16.8598 15.72Z" fill="#16A34A"/>
</svg>
