<svg width="26" height="24" viewBox="0 0 26 24" fill="none" xmlns="http://www.w3.org/2000/svg">
<path d="M9 5C9 4.28 9.18 3.61333 9.54 3C9.9 2.38667 10.3867 1.9 11 1.54C11.6133 1.18 12.28 1 13 1C13.72 1 14.3867 1.18 15 1.54C15.6133 1.9 16.1 2.38667 16.46 3C16.82 3.61333 17 4.28 17 5V10.26C17.92 10.9 18.6467 11.7133 19.18 12.7C19.7267 13.7267 20 14.8267 20 16C20 17.2667 19.68 18.4467 19.04 19.54C18.4267 20.5933 17.5933 21.4267 16.54 22.04C15.4467 22.68 14.2667 23 13 23C11.7333 23 10.5533 22.68 9.46 22.04C8.40667 21.4267 7.57333 20.5933 6.96 19.54C6.32 18.4467 6 17.2667 6 16C6 14.8267 6.27333 13.7267 6.82 12.7C7.35333 11.7133 8.08 10.9 9 10.26V5ZM10.14 11.9C9.47333 12.3667 8.95 12.96 8.57 13.68C8.19 14.4 8 15.1733 8 16C8 16.9067 8.22333 17.7433 8.67 18.51C9.11667 19.2767 9.72333 19.8833 10.49 20.33C11.2567 20.7767 12.0933 21 13 21C13.9067 21 14.7433 20.7767 15.51 20.33C16.2767 19.8833 16.8833 19.2767 17.33 18.51C17.7767 17.7433 18 16.9067 18 16C18 15.1733 17.81 14.4 17.43 13.68C17.05 12.96 16.5267 12.3667 15.86 11.9L15 11.3V5C15 4.64 14.91 4.30667 14.73 4C14.55 3.69333 14.3067 3.45 14 3.27C13.6933 3.09 13.36 3 13 3C12.64 3 12.3067 3.09 12 3.27C11.6933 3.45 11.45 3.69333 11.27 4C11.09 4.30667 11 4.64 11 5V11.3L10.14 11.9ZM12 12.12V5H14V12.12C14.5733 12.2667 15.0867 12.53 15.54 12.91C15.9933 13.29 16.35 13.7467 16.61 14.28C16.87 14.8133 17 15.3867 17 16C17 16.72 16.82 17.3867 16.46 18C16.1 18.6133 15.6133 19.1 15 19.46C14.3867 19.82 13.72 20 13 20C12.28 20 11.6133 19.82 11 19.46C10.3867 19.1 9.9 18.6133 9.54 18C9.18 17.3867 9 16.72 9 16C9 15.3867 9.13 14.8133 9.39 14.28C9.65 13.7467 10.0067 13.29 10.46 12.91C10.9133 12.53 11.4267 12.2667 12 12.12ZM13 18C13.36 18 13.6933 17.91 14 17.73C14.3067 17.55 14.55 17.3067 14.73 17C14.91 16.6933 15 16.36 15 16C15 15.64 14.91 15.3067 14.73 15C14.55 14.6933 14.3067 14.45 14 14.27C13.6933 14.09 13.36 14 13 14C12.64 14 12.3067 14.09 12 14.27C11.6933 14.45 11.45 14.6933 11.27 15C11.09 15.3067 11 15.64 11 16C11 16.36 11.09 16.6933 11.27 17C11.45 17.3067 11.6933 17.55 12 17.73C12.3067 17.91 12.64 18 13 18Z" fill="white"/>
</svg>
