<svg width="26" height="24" viewBox="0 0 26 24" fill="none" xmlns="http://www.w3.org/2000/svg">
<path d="M4.78 2.82L13 1L21.22 2.82C21.4467 2.87333 21.6333 2.99333 21.78 3.18C21.9267 3.36667 22 3.57333 22 3.8V13.78C22 14.7933 21.7633 15.74 21.29 16.62C20.8167 17.5 20.16 18.22 19.32 18.78L13 23L6.68 18.78C5.84 18.22 5.18333 17.5 4.71 16.62C4.23667 15.74 4 14.7933 4 13.78V3.8C4 3.57333 4.07333 3.36667 4.22 3.18C4.36667 2.99333 4.55333 2.87333 4.78 2.82ZM6 4.6V13.78C6 14.46 6.15667 15.0933 6.47 15.68C6.78333 16.2667 7.22 16.7467 7.78 17.12L13 20.6L18.22 17.12C18.78 16.7467 19.2167 16.2667 19.53 15.68C19.8433 15.0933 20 14.46 20 13.78V4.6L13 3.04L6 4.6Z" fill="white"/>
</svg>
